<svg width="88" height="14" viewBox="0 0 88 14" fill="none" xmlns="http://www.w3.org/2000/svg">
<path d="M6.462 13.1415C5.322 13.1415 4.338 12.9555 3.51 12.5835C2.694 12.1995 2.058 11.6475 1.602 10.9275C1.158 10.1955 0.912 9.30755 0.864 8.26355C0.852 7.74755 0.846 7.20155 0.846 6.62555C0.846 6.03755 0.852 5.47955 0.864 4.95155C0.912 3.93155 1.164 3.06755 1.62 2.35955C2.076 1.65155 2.718 1.11155 3.546 0.739547C4.374 0.367547 5.346 0.181547 6.462 0.181547C7.362 0.181547 8.16 0.295547 8.856 0.523547C9.552 0.739547 10.134 1.03355 10.602 1.40555C11.082 1.77755 11.442 2.18555 11.682 2.62955C11.934 3.07355 12.066 3.51155 12.078 3.94355C12.09 4.05155 12.054 4.14155 11.97 4.21355C11.898 4.28555 11.808 4.32155 11.7 4.32155H9.072C8.94 4.32155 8.838 4.30355 8.766 4.26755C8.706 4.21955 8.652 4.15355 8.604 4.06955C8.52 3.88955 8.394 3.70355 8.226 3.51155C8.07 3.30755 7.848 3.13355 7.56 2.98955C7.284 2.84555 6.918 2.77355 6.462 2.77355C5.778 2.77355 5.238 2.95355 4.842 3.31355C4.458 3.67355 4.248 4.24955 4.212 5.04155C4.176 6.07355 4.176 7.11755 4.212 8.17355C4.248 9.01355 4.47 9.61955 4.878 9.99155C5.286 10.3635 5.826 10.5495 6.498 10.5495C6.954 10.5495 7.356 10.4715 7.704 10.3155C8.064 10.1595 8.346 9.91955 8.55 9.59555C8.754 9.25955 8.856 8.83355 8.856 8.31755V7.97555H7.164C7.032 7.97555 6.918 7.93355 6.822 7.84955C6.738 7.75355 6.696 7.63955 6.696 7.50755V6.17555C6.696 6.04355 6.738 5.93555 6.822 5.85155C6.918 5.75555 7.032 5.70755 7.164 5.70755H11.7C11.832 5.70755 11.94 5.75555 12.024 5.85155C12.108 5.93555 12.15 6.04355 12.15 6.17555V8.22755C12.15 9.25955 11.916 10.1415 11.448 10.8735C10.98 11.6055 10.314 12.1695 9.45 12.5655C8.598 12.9495 7.602 13.1415 6.462 13.1415ZM18.4451 13.1415C17.4371 13.1415 16.5851 12.9795 15.8891 12.6555C15.2051 12.3315 14.6771 11.8695 14.3051 11.2695C13.9451 10.6575 13.7411 9.93155 13.6931 9.09155C13.6811 8.85155 13.6751 8.58155 13.6751 8.28155C13.6751 7.96955 13.6811 7.69955 13.6931 7.47155C13.7411 6.61955 13.9571 5.89355 14.3411 5.29355C14.7251 4.69355 15.2591 4.23155 15.9431 3.90755C16.6391 3.58355 17.4731 3.42155 18.4451 3.42155C19.4291 3.42155 20.2631 3.58355 20.9471 3.90755C21.6431 4.23155 22.1831 4.69355 22.5671 5.29355C22.9511 5.89355 23.1671 6.61955 23.2151 7.47155C23.2271 7.69955 23.2331 7.96955 23.2331 8.28155C23.2331 8.58155 23.2271 8.85155 23.2151 9.09155C23.1671 9.93155 22.9571 10.6575 22.5851 11.2695C22.2251 11.8695 21.6971 12.3315 21.0011 12.6555C20.3171 12.9795 19.4651 13.1415 18.4451 13.1415ZM18.4451 10.9455C18.9851 10.9455 19.3751 10.7835 19.6151 10.4595C19.8671 10.1355 20.0111 9.64955 20.0471 9.00155C20.0591 8.82155 20.0651 8.58155 20.0651 8.28155C20.0651 7.98155 20.0591 7.74155 20.0471 7.56155C20.0111 6.92555 19.8671 6.44555 19.6151 6.12155C19.3751 5.78555 18.9851 5.61755 18.4451 5.61755C17.9171 5.61755 17.5271 5.78555 17.2751 6.12155C17.0231 6.44555 16.8851 6.92555 16.8611 7.56155C16.8491 7.74155 16.8431 7.98155 16.8431 8.28155C16.8431 8.58155 16.8491 8.82155 16.8611 9.00155C16.8851 9.64955 17.0231 10.1355 17.2751 10.4595C17.5271 10.7835 17.9171 10.9455 18.4451 10.9455Z" fill="black"/>
<path d="M30.3674 13.1415C29.2274 13.1415 28.2494 12.9555 27.4334 12.5835C26.6294 12.2115 25.9994 11.6655 25.5434 10.9455C25.0994 10.2255 24.8534 9.33155 24.8054 8.26355C24.7934 7.77155 24.7874 7.24355 24.7874 6.67955C24.7874 6.11555 24.7934 5.57555 24.8054 5.05955C24.8534 4.01555 25.1054 3.13355 25.5614 2.41355C26.0174 1.68155 26.6534 1.12955 27.4694 0.757547C28.2854 0.373547 29.2514 0.181547 30.3674 0.181547C31.1594 0.181547 31.8914 0.283547 32.5634 0.487548C33.2354 0.679547 33.8234 0.967547 34.3274 1.35155C34.8314 1.72355 35.2214 2.17955 35.4974 2.71955C35.7854 3.24755 35.9354 3.84755 35.9474 4.51955C35.9594 4.62755 35.9234 4.71755 35.8394 4.78955C35.7674 4.86155 35.6774 4.89755 35.5694 4.89755H33.1394C32.9834 4.89755 32.8634 4.86755 32.7794 4.80755C32.6954 4.73555 32.6234 4.60955 32.5634 4.42955C32.3954 3.79355 32.1194 3.36155 31.7354 3.13355C31.3634 2.89355 30.9014 2.77355 30.3494 2.77355C29.6894 2.77355 29.1674 2.95955 28.7834 3.33155C28.3994 3.69155 28.1894 4.29755 28.1534 5.14955C28.1174 6.13355 28.1174 7.14155 28.1534 8.17355C28.1894 9.02555 28.3994 9.63755 28.7834 10.0095C29.1674 10.3695 29.6894 10.5495 30.3494 10.5495C30.9014 10.5495 31.3694 10.4295 31.7534 10.1895C32.1374 9.94955 32.4074 9.51755 32.5634 8.89355C32.6114 8.71355 32.6774 8.59355 32.7614 8.53355C32.8574 8.46155 32.9834 8.42555 33.1394 8.42555H35.5694C35.6774 8.42555 35.7674 8.46155 35.8394 8.53355C35.9234 8.60555 35.9594 8.69555 35.9474 8.80355C35.9354 9.47555 35.7854 10.0815 35.4974 10.6215C35.2214 11.1495 34.8314 11.6055 34.3274 11.9895C33.8234 12.3615 33.2354 12.6495 32.5634 12.8535C31.8914 13.0455 31.1594 13.1415 30.3674 13.1415ZM42.0701 13.1415C41.0621 13.1415 40.2101 12.9795 39.5141 12.6555C38.8301 12.3315 38.3021 11.8695 37.9301 11.2695C37.5701 10.6575 37.3661 9.93155 37.3181 9.09155C37.3061 8.85155 37.3001 8.58155 37.3001 8.28155C37.3001 7.96955 37.3061 7.69955 37.3181 7.47155C37.3661 6.61955 37.5821 5.89355 37.9661 5.29355C38.3501 4.69355 38.8841 4.23155 39.5681 3.90755C40.2641 3.58355 41.0981 3.42155 42.0701 3.42155C43.0541 3.42155 43.8881 3.58355 44.5721 3.90755C45.2681 4.23155 45.8081 4.69355 46.1921 5.29355C46.5761 5.89355 46.7921 6.61955 46.8401 7.47155C46.8521 7.69955 46.8581 7.96955 46.8581 8.28155C46.8581 8.58155 46.8521 8.85155 46.8401 9.09155C46.7921 9.93155 46.5821 10.6575 46.2101 11.2695C45.8501 11.8695 45.3221 12.3315 44.6261 12.6555C43.9421 12.9795 43.0901 13.1415 42.0701 13.1415ZM42.0701 10.9455C42.6101 10.9455 43.0001 10.7835 43.2401 10.4595C43.4921 10.1355 43.6361 9.64955 43.6721 9.00155C43.6841 8.82155 43.6901 8.58155 43.6901 8.28155C43.6901 7.98155 43.6841 7.74155 43.6721 7.56155C43.6361 6.92555 43.4921 6.44555 43.2401 6.12155C43.0001 5.78555 42.6101 5.61755 42.0701 5.61755C41.5421 5.61755 41.1521 5.78555 40.9001 6.12155C40.6481 6.44555 40.5101 6.92555 40.4861 7.56155C40.4741 7.74155 40.4681 7.98155 40.4681 8.28155C40.4681 8.58155 40.4741 8.82155 40.4861 9.00155C40.5101 9.64955 40.6481 10.1355 40.9001 10.4595C41.1521 10.7835 41.5421 10.9455 42.0701 10.9455ZM49.0784 12.9615C48.9464 12.9615 48.8384 12.9195 48.7544 12.8355C48.6704 12.7515 48.6284 12.6435 48.6284 12.5115V4.05155C48.6284 3.93155 48.6704 3.82955 48.7544 3.74555C48.8384 3.64955 48.9464 3.60155 49.0784 3.60155H51.1484C51.2804 3.60155 51.3884 3.64955 51.4724 3.74555C51.5564 3.82955 51.5984 3.93155 51.5984 4.05155V4.77155C51.9224 4.39955 52.3064 4.11155 52.7504 3.90755C53.2064 3.70355 53.7164 3.60155 54.2804 3.60155H55.0724C55.1924 3.60155 55.2944 3.64355 55.3784 3.72755C55.4744 3.81155 55.5224 3.91955 55.5224 4.05155V5.90555C55.5224 6.02555 55.4744 6.13355 55.3784 6.22955C55.2944 6.31355 55.1924 6.35555 55.0724 6.35555H53.3264C52.8344 6.35555 52.4504 6.49355 52.1744 6.76955C51.9104 7.03355 51.7784 7.41155 51.7784 7.90355V12.5115C51.7784 12.6435 51.7304 12.7515 51.6344 12.8355C51.5504 12.9195 51.4424 12.9615 51.3104 12.9615H49.0784ZM61.1599 13.1415C60.1519 13.1415 59.2999 12.9795 58.6039 12.6555C57.9199 12.3315 57.3919 11.8695 57.0199 11.2695C56.6599 10.6575 56.4559 9.93155 56.4079 9.09155C56.3959 8.85155 56.3899 8.58155 56.3899 8.28155C56.3899 7.96955 56.3959 7.69955 56.4079 7.47155C56.4559 6.61955 56.6719 5.89355 57.0559 5.29355C57.4399 4.69355 57.9739 4.23155 58.6579 3.90755C59.3539 3.58355 60.1879 3.42155 61.1599 3.42155C62.1439 3.42155 62.9779 3.58355 63.6619 3.90755C64.3579 4.23155 64.8979 4.69355 65.2819 5.29355C65.6659 5.89355 65.8819 6.61955 65.9299 7.47155C65.9419 7.69955 65.9479 7.96955 65.9479 8.28155C65.9479 8.58155 65.9419 8.85155 65.9299 9.09155C65.8819 9.93155 65.6719 10.6575 65.2999 11.2695C64.9399 11.8695 64.4119 12.3315 63.7159 12.6555C63.0319 12.9795 62.1799 13.1415 61.1599 13.1415ZM61.1599 10.9455C61.6999 10.9455 62.0899 10.7835 62.3299 10.4595C62.5819 10.1355 62.7259 9.64955 62.7619 9.00155C62.7739 8.82155 62.7799 8.58155 62.7799 8.28155C62.7799 7.98155 62.7739 7.74155 62.7619 7.56155C62.7259 6.92555 62.5819 6.44555 62.3299 6.12155C62.0899 5.78555 61.6999 5.61755 61.1599 5.61755C60.6319 5.61755 60.2419 5.78555 59.9899 6.12155C59.7379 6.44555 59.5999 6.92555 59.5759 7.56155C59.5639 7.74155 59.5579 7.98155 59.5579 8.28155C59.5579 8.58155 59.5639 8.82155 59.5759 9.00155C59.5999 9.64955 59.7379 10.1355 59.9899 10.4595C60.2419 10.7835 60.6319 10.9455 61.1599 10.9455ZM68.1683 12.9615C68.0363 12.9615 67.9283 12.9195 67.8442 12.8355C67.7603 12.7515 67.7183 12.6435 67.7183 12.5115V4.05155C67.7183 3.91955 67.7603 3.81155 67.8442 3.72755C67.9283 3.64355 68.0363 3.60155 68.1683 3.60155H70.2383C70.3703 3.60155 70.4783 3.64355 70.5623 3.72755C70.6463 3.81155 70.6883 3.91955 70.6883 4.05155V4.73555C71.0003 4.36355 71.4083 4.05155 71.9123 3.79955C72.4163 3.54755 73.0103 3.42155 73.6943 3.42155C74.3903 3.42155 75.0023 3.57755 75.5303 3.88955C76.0703 4.20155 76.4903 4.66355 76.7903 5.27555C77.1023 5.87555 77.2583 6.61355 77.2583 7.48955V12.5115C77.2583 12.6435 77.2103 12.7515 77.1143 12.8355C77.0303 12.9195 76.9283 12.9615 76.8083 12.9615H74.5403C74.4203 12.9615 74.3123 12.9195 74.2163 12.8355C74.1323 12.7515 74.0903 12.6435 74.0903 12.5115V7.59755C74.0903 7.03355 73.9523 6.60155 73.6763 6.30155C73.4123 5.98955 73.0163 5.83355 72.4883 5.83355C71.9963 5.83355 71.6003 5.98955 71.3003 6.30155C71.0123 6.60155 70.8683 7.03355 70.8683 7.59755V12.5115C70.8683 12.6435 70.8203 12.7515 70.7243 12.8355C70.6403 12.9195 70.5383 12.9615 70.4183 12.9615H68.1683ZM82.0751 13.1415C81.4271 13.1415 80.8451 13.0215 80.3291 12.7815C79.8251 12.5295 79.4231 12.1935 79.1231 11.7735C78.8231 11.3535 78.6731 10.8795 78.6731 10.3515C78.6731 9.49955 79.0211 8.82755 79.7171 8.33555C80.4131 7.83155 81.3371 7.48955 82.4891 7.30955L84.7391 6.96755V6.71555C84.7391 6.28355 84.6491 5.95355 84.4691 5.72555C84.2891 5.49755 83.9591 5.38355 83.4791 5.38355C83.1431 5.38355 82.8671 5.44955 82.6511 5.58155C82.4471 5.71355 82.2851 5.89355 82.1651 6.12155C82.0571 6.27755 81.9071 6.35555 81.7151 6.35555H79.6991C79.5671 6.35555 79.4651 6.31955 79.3931 6.24755C79.3211 6.16355 79.2911 6.06755 79.3031 5.95955C79.3031 5.74355 79.3811 5.49755 79.5371 5.22155C79.7051 4.93355 79.9571 4.65155 80.2931 4.37555C80.6291 4.09955 81.0611 3.87155 81.5891 3.69155C82.1171 3.51155 82.7531 3.42155 83.4971 3.42155C84.2771 3.42155 84.9431 3.51155 85.4951 3.69155C86.0471 3.87155 86.4911 4.12355 86.8271 4.44755C87.1751 4.77155 87.4331 5.15555 87.6011 5.59955C87.7691 6.03155 87.8531 6.51155 87.8531 7.03955V12.5115C87.8531 12.6435 87.8051 12.7515 87.7091 12.8355C87.6251 12.9195 87.5231 12.9615 87.4031 12.9615H85.3151C85.1831 12.9615 85.0751 12.9195 84.9911 12.8355C84.9071 12.7515 84.8651 12.6435 84.8651 12.5115V11.8815C84.7091 12.1095 84.4991 12.3195 84.2351 12.5115C83.9711 12.7035 83.6591 12.8535 83.2991 12.9615C82.9511 13.0815 82.5431 13.1415 82.0751 13.1415ZM82.9211 11.0895C83.2691 11.0895 83.5811 11.0175 83.8571 10.8735C84.1451 10.7175 84.3671 10.4835 84.5231 10.1715C84.6911 9.84755 84.7751 9.44555 84.7751 8.96555V8.71355L83.2451 8.98355C82.6811 9.07955 82.2671 9.22955 82.0031 9.43355C81.7511 9.62555 81.6251 9.85355 81.6251 10.1175C81.6251 10.3215 81.6851 10.4955 81.8051 10.6395C81.9251 10.7835 82.0811 10.8975 82.2731 10.9815C82.4651 11.0535 82.6811 11.0895 82.9211 11.0895Z" fill="#EC5863"/>
</svg>
